<?xml version="1.0" encoding="UTF-8"?>
<svg viewBox="0 0 217 373.8" xmlns="http://www.w3.org/2000/svg" data-type="shape" fill="rgb(0, 0, 161)">
    <g>
        <path d="M78 44c0 4-7 4-7 0V0h74v44c0 4-6 4-6 0V7H78v37zM25 82l9 10 20-21 4 5-24 25-14-14 5-5zm57-6h111v6H82v-6zm0 20h61v6H82v-6zm-57 28l9 9 20-20 4 5-24 25-14-14 5-5zm57-6h111v6H82v-6zm0 19h61v7H82v-7zm-57 29l9 8 20-19 4 4-24 25-14-14 5-4zm57-7h111v7H82v-7zm0 19h61v7H82v-7zm0 22h111v7H82v-7zm0 19h61v7H82v-7zm-33 9l-10-10-10 10-4-5 10-10-10-10 4-5 10 10 10-10 5 5-10 10 10 10-5 5zm123 53c0 4-7 4-7 0v-49h45V37h-52v12c0 6-7 11-14 11H70c-7-1-12-7-12-14v-9H6v255h166l36-45c3-4 8 0 6 4l-39 48H0V30h64v16c0 4 3 7 7 8h73c4 0 7-3 8-6V30h65v208h-45v43z"/>
    </g>
</svg>
