<?xml version="1.0" encoding="UTF-8"?>
<svg viewBox="15 47 169.99900817871094 105.99998474121094" xmlns="http://www.w3.org/2000/svg" fill="#0000A1" >
    <g>
        <path d="M183.631 67.712h-50.645V48.369A1.37 1.37 0 0 0 131.617 47H105.17a1.37 1.37 0 0 0-1.369 1.369v19.343H53.156a1.37 1.37 0 0 0-1.369 1.369v50.327c-1.23.688-2.074 1.988-2.074 3.495v6.675H18.402A3.406 3.406 0 0 0 15 132.98a3.405 3.405 0 0 0 3.402 3.401h31.311v6.675a4.026 4.026 0 0 0 4.021 4.02h2.795a4.025 4.025 0 0 0 4.02-4.02v-.589l32.744 1.138a10.549 10.549 0 0 0 7.697-3.012 10.523 10.523 0 0 0 3.115-6.244h79.525a1.37 1.37 0 0 0 1.369-1.369V69.081a1.367 1.367 0 0 0-1.368-1.369zm-77.092-17.974h23.709v17.974h-5.626V55.86a1.37 1.37 0 0 0-1.369-1.369h-10.248a1.37 1.37 0 0 0-1.369 1.369v11.852h-5.097V49.738zm7.835 17.974V57.229h7.51v10.483h-7.51zm-9.204 2.737h77.092v19.736h-57.375v-6.563a1.37 1.37 0 0 0-1.369-1.369h-10.249a1.37 1.37 0 0 0-1.369 1.369v6.563H54.525V70.449h50.645zm16.979 19.737h-7.511v-5.194h7.511v5.194zm-7.511 2.737h7.511v5.195h-7.511v-5.195zm-96.236 40.719a.663.663 0 1 1 0-1.327h31.311v1.327H18.402zm39.409 9.413c0 .707-.575 1.282-1.282 1.282h-2.795a1.285 1.285 0 0 1-1.283-1.282v-20.153c0-.708.575-1.282 1.283-1.282h2.795c.707 0 1.282.575 1.282 1.282v20.153zm41.268-4.423a7.821 7.821 0 0 1-5.703 2.237l-32.827-1.142v-13.496l32.816-1.142a7.867 7.867 0 0 1 5.714 2.237c1.539 1.499 2.386 3.506 2.386 5.654s-.847 4.153-2.386 5.652zm5.027-7.021a10.524 10.524 0 0 0-3.116-6.245 10.53 10.53 0 0 0-7.708-3.012l-32.732 1.138v-.589a4.025 4.025 0 0 0-4.02-4.02h-2.004v-25.96H111.9v6.564a1.37 1.37 0 0 0 1.369 1.369h10.249a1.37 1.37 0 0 0 1.369-1.369v-6.564h57.375v38.687h-78.156z" fill="#0000A1" data-color="1"></path>
        <path d="M126.89 141.701c-2.191 0-4.024 1.471-4.619 3.47h-6.787a1.37 1.37 0 0 0 0 2.738h6.787c.595 1.999 2.429 3.47 4.619 3.47 2.669 0 4.84-2.171 4.84-4.839s-2.17-4.839-4.84-4.839zm0 6.941c-1.159 0-2.102-.943-2.102-2.102s.943-2.102 2.102-2.102 2.102.943 2.102 2.102-.942 2.102-2.102 2.102z" fill="#0000A1" data-color="1"></path>
        <path d="M151.727 143.323a4.81 4.81 0 0 0-2.738.855l-4.417-3.38a1.37 1.37 0 0 0-1.665 2.174l4.353 3.331a4.816 4.816 0 0 0-.374 1.859 4.844 4.844 0 0 0 4.84 4.838 4.845 4.845 0 0 0 4.84-4.838 4.843 4.843 0 0 0-4.839-4.839zm0 6.939a2.104 2.104 0 0 1-2.102-2.101c0-1.159.943-2.102 2.102-2.102s2.102.943 2.102 2.102a2.104 2.104 0 0 1-2.102 2.101z" ></path>
    </g>
</svg>

