<?xml version="1.0" encoding="UTF-8"?>
<svg viewBox="0 0 100 125" xmlns="http://www.w3.org/2000/svg" data-type="shape" fill="rgb(0, 0, 161)">
    <g>
        <path d="M93.4 15.6c0-.1-.1-.1-.1-.2l-.3-.3h-.8c-.1 0-.2.1-.4.1-.1 0-.1.1-.2.1L80.1 27 73 19.9 84.7 8.2s.1-.1.1-.2c.1-.1.1-.2.1-.4v-.8l-.3-.3c-.1 0-.1-.1-.2-.1-6.1-2.5-13.1-1.1-17.8 3.6-3.8 3.8-5.5 9.1-4.6 14.4l-7.5 6.8-3.1-3.1s-.1 0-.1-.1l-.1-.1h-.4l-7.1-1c.7-1 1.1-2.2 1.1-3.4 0-1.6-.6-3.1-1.7-4.2s-2.6-1.7-4.2-1.7-3.1.6-4.2 1.7L10.3 43.9C8 46.2 8 50 10.3 52.3c1.1 1.1 2.6 1.7 4.2 1.7.8 0 1.5-.2 2.2-.4-.1.4-.1.9-.1 1.4 0 2.2.8 4.2 2.4 5.7l1.6 1.6-11.3 10-.1.1c-5 5.1-5 13.3 0 18.3 2.5 2.5 5.9 3.8 9.2 3.8 3.3 0 6.6-1.3 9.2-3.8l10.1-11.2 1 1c1.2 1.1 2.8 1.7 4.4 1.7 1.7 0 3.3-.6 4.6-1.9 1.2-1.2 1.9-2.8 1.9-4.6v-.4c.9.4 1.9.7 2.8.7 1.7 0 3.3-.6 4.6-1.9 1.4-1.4 2-3.2 1.9-4.9.9.5 1.9.7 3 .8h.1c1.7 0 3.3-.6 4.5-1.8 1.2-1.2 1.9-2.9 1.8-4.7v-.2c1 .6 2.1.9 3.3.9 1.7 0 3.4-.7 4.6-1.9 1.2-1.2 1.9-2.8 1.9-4.6 0-1.7-.7-3.4-1.9-4.6l-7.7-7.7 6.8-7.5c.9.2 1.9.2 2.8.2 4.3 0 8.5-1.7 11.6-4.8 4.7-4.6 6.2-11.5 3.7-17.7zM11.6 50.9c-1.6-1.6-1.6-4.1 0-5.6L36 20.9c.8-.8 1.8-1.2 2.8-1.2s2.1.4 2.8 1.2 1.2 1.8 1.2 2.8c0 1.1-.4 2.1-1.2 2.8L17.3 50.9c-.8.8-1.8 1.2-2.8 1.2-1.1-.1-2.1-.5-2.9-1.2zm14.6 38.5c-4.3 4.3-11.3 4.3-15.6 0-4.3-4.3-4.3-11.3 0-15.6l11.3-10.2 14.5 14.5-10.2 11.3zm50.1-31.7c0 1.2-.5 2.3-1.3 3.2-.9.9-2 1.3-3.2 1.3-1.2 0-2.3-.5-3.2-1.3l-2-2-3.2-3.2c-.4-.4-1-.4-1.4 0-.4.4-.4 1 0 1.4l3.3 3.3c.9.9 1.4 2 1.4 3.3 0 1.2-.4 2.4-1.3 3.2-.8.8-2 1.3-3.2 1.3-1.2 0-2.4-.5-3.3-1.4l-4.4-4.4c-.4-.4-1-.4-1.4 0-.4.4-.4 1 0 1.4l2.7 2.7c1.8 1.8 1.8 4.6 0 6.4-1.8 1.8-4.6 1.8-6.4 0l-1.5-1.5-2.9-3c-.4-.4-1-.4-1.4 0-.4.4-.4 1 0 1.4l2.9 2.9c.8.9 1.3 2 1.3 3.2 0 1.2-.5 2.3-1.3 3.2-1.8 1.8-4.6 1.8-6.4 0L20.3 59.3c-1.2-1.2-1.8-2.7-1.8-4.3 0-1.6.6-3.2 1.8-4.3l21.8-21.8 8.2 1.1L75 54.7c.8.7 1.3 1.8 1.3 3zM88.4 32c-3.5 3.5-8.4 4.9-13.2 3.9h-.7s-.1 0-.1.1l-.1.1-7.1 7.8-11.3-11.1 7.8-7c.1-.1.2-.2.3-.4 0-.1 0-.1.1-.2v-.4c-1-4.8.5-9.7 3.9-13.2 3.8-3.8 9.2-5.1 14.2-3.7L70.9 19.2c-.4.4-.4 1 0 1.4l8.5 8.5c.2.2.4.3.7.3.3 0 .5-.1.7-.3l11.3-11.3c1.4 5 .1 10.5-3.7 14.2z"/>
        <path d="M18.4 73.5c-4.4 0-8 3.6-8 8s3.6 8 8 8 8-3.6 8-8c.1-4.4-3.5-8-8-8zm0 14.1c-3.4 0-6.1-2.7-6.1-6.1 0-3.4 2.7-6.1 6.1-6.1 3.4 0 6.1 2.7 6.1 6.1 0 3.4-2.7 6.1-6.1 6.1z"/>
    </g>
</svg>
