<?xml version="1.0" encoding="UTF-8"?>
<svg viewBox="0 0 100 125" xmlns="http://www.w3.org/2000/svg" data-type="shape" fill="rgb(0, 0, 161)">
    <g>
        <path d="M72.9 7.7H8.1c-2.2 0-3.9 2-3.9 4.5v75.7c0 2.5 1.8 4.5 3.9 4.5h64.8c2.2 0 3.9-2 3.9-4.5V12.2c.1-2.5-1.7-4.5-3.9-4.5zm2 80.1c0 1.4-.9 2.5-1.9 2.5H8.1c-1.1 0-1.9-1.1-1.9-2.5V12.2c0-1.4.9-2.5 1.9-2.5h64.8c1.1 0 1.9 1.1 1.9 2.5v75.6z"/>
        <path d="M19.7 44.2h-4.3c-2.1 0-3.8 1.7-3.8 3.8v4c0 2.1 1.7 3.8 3.8 3.8h4.3c2.1 0 3.8-1.7 3.8-3.8v-4c0-2.1-1.7-3.8-3.8-3.8zm1.8 7.8c0 1-.8 1.8-1.8 1.8h-4.3c-1 0-1.8-.8-1.8-1.8v-4c0-1 .8-1.8 1.8-1.8h4.3c1 0 1.8.8 1.8 1.8v4z"/>
        <path d="M19.7 59.1h-4.3c-2.1 0-3.8 1.7-3.8 3.8v3.9c0 2.1 1.7 3.8 3.8 3.8h4.3c2.1 0 3.8-1.7 3.8-3.8v-3.9c0-2.1-1.7-3.8-3.8-3.8zm1.8 7.7c0 1-.8 1.8-1.8 1.8h-4.3c-1 0-1.8-.8-1.8-1.8v-3.9c0-1 .8-1.8 1.8-1.8h4.3c1 0 1.8.8 1.8 1.8v3.9z"/>
        <path d="M19.7 74h-4.3c-2.1 0-3.8 1.7-3.8 3.8v3.9c0 2.1 1.7 3.8 3.8 3.8h4.3c2.1 0 3.8-1.7 3.8-3.8v-3.9c0-2.1-1.7-3.8-3.8-3.8zm1.8 7.7c0 1-.8 1.8-1.8 1.8h-4.3c-1 0-1.8-.8-1.8-1.8v-3.9c0-1 .8-1.8 1.8-1.8h4.3c1 0 1.8.8 1.8 1.8v3.9z"/>
        <path d="M35 44.2h-4.3c-2.1 0-3.8 1.7-3.8 3.8v4c0 2.1 1.7 3.8 3.8 3.8H35c2.1 0 3.8-1.7 3.8-3.8v-4c0-2.1-1.7-3.8-3.8-3.8zm1.8 7.8c0 1-.8 1.8-1.8 1.8h-4.3c-1 0-1.8-.8-1.8-1.8v-4c0-1 .8-1.8 1.8-1.8H35c1 0 1.8.8 1.8 1.8v4z"/>
        <path d="M35 59.1h-4.3c-2.1 0-3.8 1.7-3.8 3.8v3.9c0 2.1 1.7 3.8 3.8 3.8H35c2.1 0 3.8-1.7 3.8-3.8v-3.9c0-2.1-1.7-3.8-3.8-3.8zm1.8 7.7c0 1-.8 1.8-1.8 1.8h-4.3c-1 0-1.8-.8-1.8-1.8v-3.9c0-1 .8-1.8 1.8-1.8H35c1 0 1.8.8 1.8 1.8v3.9z"/>
        <path d="M35 74h-4.3c-2.1 0-3.8 1.7-3.8 3.8v3.9c0 2.1 1.7 3.8 3.8 3.8H35c2.1 0 3.8-1.7 3.8-3.8v-3.9c0-2.1-1.7-3.8-3.8-3.8zm1.8 7.7c0 1-.8 1.8-1.8 1.8h-4.3c-1 0-1.8-.8-1.8-1.8v-3.9c0-1 .8-1.8 1.8-1.8H35c1 0 1.8.8 1.8 1.8v3.9z"/>
        <path d="M50.4 44.2h-4.3c-2.1 0-3.8 1.7-3.8 3.8v4c0 2.1 1.7 3.8 3.8 3.8h4.3c2.1 0 3.8-1.7 3.8-3.8v-4c0-2.1-1.7-3.8-3.8-3.8zm1.8 7.8c0 1-.8 1.8-1.8 1.8h-4.3c-1 0-1.8-.8-1.8-1.8v-4c0-1 .8-1.8 1.8-1.8h4.3c1 0 1.8.8 1.8 1.8v4z"/>
        <path d="M50.4 59.1h-4.3c-2.1 0-3.8 1.7-3.8 3.8v3.9c0 2.1 1.7 3.8 3.8 3.8h4.3c2.1 0 3.8-1.7 3.8-3.8v-3.9c0-2.1-1.7-3.8-3.8-3.8zm1.8 7.7c0 1-.8 1.8-1.8 1.8h-4.3c-1 0-1.8-.8-1.8-1.8v-3.9c0-1 .8-1.8 1.8-1.8h4.3c1 0 1.8.8 1.8 1.8v3.9z"/>
        <path d="M50.4 74h-4.3c-2.1 0-3.8 1.7-3.8 3.8v3.9c0 2.1 1.7 3.8 3.8 3.8h4.3c2.1 0 3.8-1.7 3.8-3.8v-3.9c0-2.1-1.7-3.8-3.8-3.8zm1.8 7.7c0 1-.8 1.8-1.8 1.8h-4.3c-1 0-1.8-.8-1.8-1.8v-3.9c0-1 .8-1.8 1.8-1.8h4.3c1 0 1.8.8 1.8 1.8v3.9z"/>
        <path d="M65.7 44.2h-4.3c-2.1 0-3.8 1.7-3.8 3.8v4c0 2.1 1.7 3.8 3.8 3.8h4.3c2.1 0 3.8-1.7 3.8-3.8v-4c0-2.1-1.7-3.8-3.8-3.8zm1.8 7.8c0 1-.8 1.8-1.8 1.8h-4.3c-1 0-1.8-.8-1.8-1.8v-4c0-1 .8-1.8 1.8-1.8h4.3c1 0 1.8.8 1.8 1.8v4z"/>
        <path d="M70.4 18.3c0-2.1-1.7-3.8-3.8-3.8H14.5c-2.1 0-3.8 1.7-3.8 3.8v3.9c0 2.1 1.7 3.8 3.8 3.8h52.1c2.1 0 3.8-1.7 3.8-3.8v-3.9zM66.6 24H14.5c-1 0-1.8-.8-1.8-1.8v-3.9c0-1 .8-1.8 1.8-1.8h52.1c1 0 1.8.8 1.8 1.8v3.9c-.1 1.1-.9 1.8-1.8 1.8z"/>
        <path d="M19.7 29.4h-4.3c-2.1 0-3.8 1.7-3.8 3.8v3.9c0 2.1 1.7 3.8 3.8 3.8h4.3c2.1 0 3.8-1.7 3.8-3.8v-3.9c0-2.1-1.7-3.8-3.8-3.8zm1.8 7.7c0 1-.8 1.8-1.8 1.8h-4.3c-1 0-1.8-.8-1.8-1.8v-3.9c0-1 .8-1.8 1.8-1.8h4.3c1 0 1.8.8 1.8 1.8v3.9z"/>
        <path d="M35 29.4h-4.3c-2.1 0-3.8 1.7-3.8 3.8v3.9c0 2.1 1.7 3.8 3.8 3.8H35c2.1 0 3.8-1.7 3.8-3.8v-3.9c0-2.1-1.7-3.8-3.8-3.8zm1.8 7.7c0 1-.8 1.8-1.8 1.8h-4.3c-1 0-1.8-.8-1.8-1.8v-3.9c0-1 .8-1.8 1.8-1.8H35c1 0 1.8.8 1.8 1.8v3.9z"/>
        <path d="M50.4 29.4h-4.3c-2.1 0-3.8 1.7-3.8 3.8v3.9c0 2.1 1.7 3.8 3.8 3.8h4.3c2.1 0 3.8-1.7 3.8-3.8v-3.9c0-2.1-1.7-3.8-3.8-3.8zm1.8 7.7c0 1-.8 1.8-1.8 1.8h-4.3c-1 0-1.8-.8-1.8-1.8v-3.9c0-1 .8-1.8 1.8-1.8h4.3c1 0 1.8.8 1.8 1.8v3.9z"/>
        <path d="M65.7 29.4h-4.3c-2.1 0-3.8 1.7-3.8 3.8v3.9c0 2.1 1.7 3.8 3.8 3.8h4.3c2.1 0 3.8-1.7 3.8-3.8v-3.9c0-2.1-1.7-3.8-3.8-3.8zm1.8 7.7c0 1-.8 1.8-1.8 1.8h-4.3c-1 0-1.8-.8-1.8-1.8v-3.9c0-1 .8-1.8 1.8-1.8h4.3c1 0 1.8.8 1.8 1.8v3.9z"/>
        <path d="M69.5 62.9c0-2.1-1.7-3.8-3.8-3.8h-4.3c-2.1 0-3.8 1.7-3.8 3.8v18.8c0 2.1 1.7 3.8 3.8 3.8h4.3c2.1 0 3.8-1.7 3.8-3.8V62.9zm-3.8 20.6h-4.3c-1 0-1.8-.8-1.8-1.8V62.9c0-1 .8-1.8 1.8-1.8h4.3c1 0 1.8.8 1.8 1.8v18.8c0 1-.8 1.8-1.8 1.8z"/>
        <path d="M94.8 5.6H82c-.6 0-1 .4-1 1v86.9c0 .6.4 1 1 1h12.8c.6 0 1-.4 1-1V6.6c0-.6-.4-1-1-1zM83 92.4V7.6h10.9v4.2h-5.4c-.6 0-1 .4-1 1s.4 1 1 1h5.4v3.3H91c-.6 0-1 .4-1 1s.4 1 1 1h2.8v3.3h-5.4c-.6 0-1 .4-1 1s.4 1 1 1h5.4v3.3H91c-.6 0-1 .4-1 1s.4 1 1 1h2.8V33h-5.4c-.6 0-1 .4-1 1s.4 1 1 1h5.4v3.3H91c-.6 0-1 .4-1 1s.4 1 1 1h2.8v3.3h-5.4c-.6 0-1 .4-1 1s.4 1 1 1h5.4V49H91c-.6 0-1 .4-1 1s.4 1 1 1h2.8v3.3h-5.4c-.6 0-1 .4-1 1s.4 1 1 1h5.4v3.3H91c-.6 0-1 .4-1 1 0 .5.4 1 1 1h2.8V65h-5.4c-.6 0-1 .4-1 1s.4 1 1 1h5.4v3.3H91c-.6 0-1 .4-1 1s.4 1 1 1h2.8v3.3h-5.4c-.6 0-1 .4-1 1s.4 1 1 1h5.4V81H91c-.6 0-1 .4-1 1s.4 1 1 1h2.8v3.3h-5.4c-.6 0-1 .4-1 1s.4 1 1 1h5.4v4.2L83 92.4z"/>
    </g>
</svg>
