<?xml version="1.0" encoding="UTF-8"?>
<svg viewBox="0 0 66 82.5" xmlns="http://www.w3.org/2000/svg" data-type="shape" fill="rgb(0, 0, 161)">
    <g>
        <path d="M65 15.3H53.9l9.7-5.9c2.4-1.4 3.2-4.6 1.7-7s-4.6-3.1-7-1.7L34.4 15.3H10.6V7.7c0-.6-.5-1-1-1C4.3 6.7 0 11 0 16.3v40.2C0 61.7 4.3 66 9.6 66H65c.6 0 1-.4 1-1V16.3c0-.6-.4-1-1-1zm-32.5 3.8l2.9 4.7-9.8 2.7 6.9-7.4zm4.8 3.9l-3.2-5.2L54.2 5.6l3.2 5.2L37.3 23zm22-20.6c1.4-.9 3.3-.4 4.2 1s.4 3.3-1 4.2L59 9.7l-3.2-5.2 3.5-2.1zM31.5 17.3l-9.8 10.5c-.3.3-.4.8-.1 1.2.2.4.7.6 1.1.4l14.5-4c.1 0 .2-.1.2-.1l11.3-6.9V37H10.6V17.3h20.9zM2 16.3c0-3.8 2.9-7 6.6-7.5V47c-2.7.3-5 1.7-6.6 3.7V16.3zm0 40.1c0-4.2 3.4-7.6 7.6-7.6.6 0 1-.4 1-1v-8.9h39.2c.6 0 1-.4 1-1V17.3H64v12.4h-8.7c-.6 0-1 .4-1 1s.4 1 1 1H64v14.2H42.4c-.6 0-1 .4-1 1V64H21.8V47.9h13.8c.6 0 1-.4 1-1s-.4-1-1-1H20.8c-.6 0-1 .4-1 1V64H9.6C5.4 64 2 60.6 2 56.4zM43.4 64V47.9H64V64H43.4z"/>
    </g>
</svg>
