<?xml version="1.0" encoding="UTF-8"?>
<svg viewBox="0 0 100 125" xmlns="http://www.w3.org/2000/svg" data-type="shape" fill="rgb(255, 97, 97)">
    <g>
        <path d="M33 41l8.7-8.7c-.2-.2-.3-.5-.5-.7l-8.9 8.9.7.5z"/>
        <path d="M31.5 39.9l9.1-9.1-.6-.6-9.3 9.3.8.4z"/>
        <path d="M30.1 36.1l7.9-7.9c-.2-.2-.5-.3-.7-.5L30.1 35v1.1z"/>
        <path d="M30.1 33.6l6.3-6.3c-.3-.1-.5-.3-.8-.4L30 32.5v1.1z"/>
        <path d="M30.1 31l4.6-4.6-.9-.3-3.7 3.7V31z"/>
        <path d="M30.1 28.5l2.6-2.6c-.3-.1-.7-.1-1-.2l-1.6 1.6v1.2z"/>
        <path d="M30.1 38.7l9.3-9.3-.6-.6-8.7 8.7v1.2z"/>
        <path d="M30.6 25.5h-.4v.4l.4-.4z"/>
        <path d="M34.5 42l8.1-8.1c-.1-.3-.2-.5-.4-.8l-8.4 8.4.7.5z"/>
        <path d="M37.4 44.2l6.3-6.3c0-.3-.1-.7-.2-1l-6.8 6.8.7.5z"/>
        <path d="M36 43.1l7.3-7.3-.3-.9-7.7 7.7.7.5z"/>
        <path d="M40.4 46.3l2.9-2.9c.1-.5.3-1 .3-1.5l-3.9 3.9.7.5z"/>
        <path d="M38.9 45.3l4.9-4.9v-1.2l-5.6 5.6.7.5z"/>
        <path d="M41.6 47.2c.3-.5.6-1.1.9-1.6l-1.3 1.3.4.3z"/>
        <path d="M87.7 82.6H12.3c-2.6 0-4.8-2.1-4.8-4.8V22.1c0-2.6 2.1-4.8 4.8-4.8h75.5c2.6 0 4.8 2.1 4.8 4.8v55.7c-.1 2.7-2.2 4.8-4.9 4.8zM12.3 19.3c-1.6 0-2.9 1.3-2.9 2.9v55.7c0 1.6 1.3 2.9 2.9 2.9h75.5c1.6 0 2.9-1.3 2.9-2.9V22.1c0-1.6-1.3-2.9-2.9-2.9H12.3z"/>
        <path d="M59.9 36.2v12h-3.7v-12h3.7z"/>
        <path d="M65.6 37.2v11h-3.7v-11h3.7z"/>
        <path d="M71.2 39.2v9h-3.7v-9h3.7z"/>
        <path d="M76.9 34.2v14h-3.7v-14h3.7z"/>
        <path d="M82.6 34.2v14h-3.7v-14h3.7z"/>
        <path d="M82.4 56.4l-19.2 9.4-7.1-4.2-12.6 5.7L23 69.2l-8 5.7h67.3l.1-18.5z"/>
        <path d="M29.6 53.8c-7.8 0-14.2-6.4-14.2-14.2 0-7.6 6.1-13.9 13.6-14.1v14l11.8 8.6c-2.4 3.4-6.6 5.7-11.2 5.7z"/>
    </g>
</svg>
