<?xml version="1.0" encoding="UTF-8"?>
<svg viewBox="0 0 100 125" xmlns="http://www.w3.org/2000/svg" data-type="shape" fill="rgb(255, 97, 97);">
    <g>
        <path d="M50.2 61.5c-6.3 0-11.5-5.2-11.5-11.5s5.2-11.5 11.5-11.5S61.7 43.7 61.7 50s-5.2 11.5-11.5 11.5zm0-20c-4.7 0-8.5 3.8-8.5 8.5s3.8 8.5 8.5 8.5 8.5-3.8 8.5-8.5-3.8-8.5-8.5-8.5z"/>
        <path d="M54.7 51.3c-.8 0-1.5-.7-1.5-1.5 0-1.7-1.4-3-3-3-.9 0-1.6.3-2.2 1-.6.6-1.5.7-2.1.1-.6-.6-.7-1.5-.1-2.1 1.1-1.2 2.8-2 4.4-2 3.3 0 6 2.7 6 6 0 .9-.7 1.5-1.5 1.5z"/>
        <path d="M64.5 65.8c-.4 0-.8-.1-1.1-.4-.6-.6-.6-1.5 0-2.1 7.3-7.3 7.3-19.2 0-26.5-.6-.6-.6-1.5 0-2.1s1.5-.6 2.1 0c8.5 8.5 8.5 22.3 0 30.8-.2.2-.6.3-1 .3z"/>
        <path d="M71.4 72.8c-.4 0-.8-.1-1.1-.4-.6-.6-.6-1.5 0-2.1 11.1-11.1 11.1-29.2 0-40.4-.6-.6-.6-1.5 0-2.1s1.5-.6 2.1 0C84.8 40 84.8 60 72.5 72.3c-.3.3-.7.5-1.1.5z"/>
        <path d="M78.4 79.8c-.4 0-.8-.1-1.1-.4-.6-.6-.6-1.5 0-2.1 15-15 15-39.4 0-54.4-.6-.6-.6-1.5 0-2.1s1.5-.6 2.1 0c16.2 16.2 16.2 42.5 0 58.6-.2.2-.6.4-1 .4z"/>
        <path d="M35.5 65.8c-.4 0-.8-.1-1.1-.4-8.5-8.5-8.5-22.3 0-30.8.6-.6 1.5-.6 2.1 0s.6 1.5 0 2.1c-7.3 7.3-7.3 19.2 0 26.5.6.6.6 1.5 0 2.1-.2.4-.6.5-1 .5z"/>
        <path d="M28.6 72.8c-.4 0-.8-.1-1.1-.4C15.2 60 15.2 40 27.5 27.7c.6-.6 1.5-.6 2.1 0s.6 1.5 0 2.1c-11.1 11.1-11.1 29.2 0 40.4.6.6.6 1.5 0 2.1-.2.3-.6.5-1 .5z"/>
        <path d="M21.6 79.8c-.4 0-.8-.1-1.1-.4-16.2-16.2-16.2-42.5 0-58.6.6-.6 1.5-.6 2.1 0s.6 1.5 0 2.1c-15 15-15 39.4 0 54.4.6.6.6 1.5 0 2.1-.2.2-.6.4-1 .4z"/>
    </g>
</svg>
