<?xml version="1.0" encoding="UTF-8"?>
<svg viewBox="0 0 65 81.2" xmlns="http://www.w3.org/2000/svg" data-type="shape" fill: rgb(255, 255, 255);>
    <g>
        <path d="M63.8 12.1l.1-.1v-.4l-.1-.1s0-.1-.1-.1l-5.6-5.5H58l-.1-.1H7.2s-.1 0-.1.1H7l-5.6 5.5s0 .1-.1.1l-.1.1v.4s0 .1.1.1c0 0 0 .1.1.1l17.3 21 .2.2C17 36.1 16 39.2 16 42.6c0 9.3 7.6 16.8 16.8 16.8 9.3 0 16.8-7.6 16.8-16.8 0-3.6-1.1-6.9-3-9.6l17.1-20.7c.1-.1.1-.1.1-.2zM39.6 27.2c-2.1-.9-4.3-1.4-6.7-1.4-2.5 0-4.9.6-7.1 1.6L15.2 14.5h34.7L39.7 26.9c0 .1-.1.1-.1.3zM51.1 13H13.9L9 7.1h47L51.1 13zM2.8 11.8l4.5-4.4L24.4 28c-1.9 1.1-3.5 2.5-4.8 4.2L2.8 11.8zm30.1 46.1c-8.5 0-15.3-6.9-15.3-15.3 0-8.5 6.9-15.3 15.3-15.3 8.5 0 15.3 6.9 15.3 15.3 0 8.5-6.9 15.3-15.3 15.3zm8-30.1L57.7 7.4l4.5 4.4-16.4 20c-1.4-1.6-3-3-4.9-4z"/>
        <path d="M40.6 39.3l-4.8-.7-2.2-4.4c-.3-.5-1.1-.5-1.3 0L30 38.6l-4.8.7c-.3 0-.5.2-.6.5-.1.3 0 .6.2.8l3.5 3.4-.8 4.8c0 .3.1.6.3.7.2.2.5.2.8.1l4.3-2.3 4.3 2.3c.1.1.2.1.3.1.2 0 .3 0 .4-.1.2-.2.3-.5.3-.7l-.7-4.9 3.5-3.4c.2-.2.3-.5.2-.8-.1-.3-.4-.5-.6-.5zm-4.5 3.9c-.2.2-.3.4-.2.7l.6 3.7-3.3-1.8c-.1-.1-.2-.1-.3-.1s-.2 0-.3.1l-3.3 1.8.6-3.7c0-.2 0-.5-.2-.7L27 40.6l3.7-.5c.2 0 .5-.2.6-.4l1.7-3.4 1.7 3.4c.1.2.3.4.6.4l3.7.5-2.9 2.6z"/>
    </g>
</svg>
