<?xml version="1.0" encoding="UTF-8"?>
<svg viewBox="0 0 100.3 125" xmlns="http://www.w3.org/2000/svg" data-type="shape" fill="rgb(255, 97, 97)">
    <g>
        <path d="M51.8 25.5c-5.8 0-10.5 4.7-10.5 10.5 0 5 4 14.1 10.5 14.1S62.3 41 62.3 36c0-5.8-4.7-10.5-10.5-10.5zm0 19.1c-2 0-5-5.2-5-8.6 0-2.7 2.2-5 5-5s5 2.2 5 5c0 3.5-3 8.6-5 8.6z"/>
        <path d="M82.9 50.3C85 45.9 86 41 86 36 86 17.1 70.7 1.8 51.8 1.8 32.9 1.8 17.6 17.1 17.6 36c0 4.2.8 8.2 2.2 12 .6 1.6 3.3 7.4 8.8 13l.6.6 19.7 20.9s3.1 3 5.9 0l3.7-3.9h10.8c.9.1 2.1.5 2.6 2l3 7.9.2.6c.3 1.1.4 3.5-4.7 3.5H31.9c-4.3 0-3.8-2.4-3.6-3.1l3.1-8.2c.1-.1.1-.2.2-.4.7-1.8 1.4-2.3 1.8-2.4h2.1c3 0 .7-2.5.7-2.5l-1.1-1.1C33.7 73.4 32 73.1 31 73h-1c-.6.1-1.7.7-2.6 3l-6.3 16.7s-1.4 5.4 7.1 5.4h46.5s9-1.1 6.5-7.8L76 76.5C74.7 73 71 73 71 73h-7.6l10.9-11.6 3.6-3.8c2.5-2.7 4-5.4 5-7.3zM54.5 74.8c-2.4 2.5-4.4.9-5.1.3l-.2-.3-16-17-.2-.2c-1.3-1.2-2.6-2.5-3.7-3.9l-.3-.4c-3.9-5.1-5.9-11.1-5.9-17.4C23.1 20.2 36 7.3 51.8 7.3c15.9 0 28.7 12.9 28.7 28.7 0 6.3-2 12.3-5.9 17.4L54.5 74.8z"/>
    </g>
</svg>
