<?xml version="1.0" encoding="UTF-8"?>
<svg viewBox="0 0 512 640" xmlns="http://www.w3.org/2000/svg" data-type="shape" fill="rgb(255, 97, 97)">
    <g>
        <path d="M226.2 162.5v105L302 215l-75.8-52.5zm16.4 31.3l30.6 21.2-30.6 21.2v-42.4z"/>
        <path d="M256 297c45.2 0 81.9-36.8 81.9-81.9 0-45.2-36.8-81.9-81.9-81.9-45.2 0-81.9 36.8-81.9 81.9S210.8 297 256 297zm0-147.5c36.1 0 65.5 29.4 65.5 65.5s-29.4 65.5-65.5 65.5-65.5-29.4-65.5-65.5 29.4-65.5 65.5-65.5z"/>
        <path d="M510 59.4H2v344.1h178l-26.2 32.8H125v16.4h262.2v-16.4h-28.8L332 403.5h178V59.4zM337.3 436.3H174.7l26.2-32.8H311l26.3 32.8zm156.3-49.2H18.4V75.7h475.2v311.4z"/>
        <path d="M477.2 92.1H34.8v245.8h442.5l-.1-245.8zm-16.4 229.4H51.2v-213h409.7v213h-.1z"/>
        <path d="M452.7 354.3v16.4h-16.4v-16.4h16.4z"/>
        <path d="M419.9 354.3v16.4h-16.4v-16.4h16.4z"/>
    </g>
</svg>
