<?xml version="1.0" encoding="UTF-8"?>
<svg viewBox="0 0 32 40" xmlns="http://www.w3.org/2000/svg" data-type="shape" fill="rgb(255, 97, 97)">
    <g>
        <path fill="#fb6648" d="M89.3 84.5v-5.8H86v5.8H59.8v-5.8h-3.3v5.8H34.1v-5.8h-3.3v5.8H8.3v-1.4l24.8-24.8h25.8L86 31.2v7h3.3V25.6H76.6v3.2h7.1L57.5 55H31.7L8.3 78.5V12.2H5v75.5h90v-3.2h-5.7z" data-color="1"></path>
        <path fill="#fb6648" d="M89.3 67.7v7.4H86v-7.4h3.3z" data-color="1"></path>
        <path fill="#fb6648" d="M89.3 56.7v7.4H86v-7.4h3.3z" data-color="1"></path>
        <path fill="#fb6648" d="M89.3 45.6V53H86v-7.4h3.3z" data-color="1"></path>
        <path fill="#fb6648" d="M59.8 67.7v7.4h-3.3v-7.4h3.3z" data-color="1"></path>
        <path fill="#fb6648" d="M34.1 67.7v7.4h-3.3v-7.4h3.3z" data-color="1"></path>
        <path d="M36.1 47.3c9 0 16.4-7.3 16.4-16.4s-7.4-16.4-16.4-16.4-16.4 7.3-16.4 16.4c0 9.1 7.3 16.4 16.4 16.4zm-7.3-18.1h5.7v-5.7h3.3v5.7h5.7v3.3h-5.7v5.7h-3.3v-5.7h-5.7v-3.3z" fill="#fb6648" data-color="1"></path>
    </g>
</svg>
