<?xml version="1.0" encoding="UTF-8"?>
<svg viewBox="0 0 32 40" xmlns="http://www.w3.org/2000/svg" data-type="shape" fill="rgb(255, 97, 97)">
    <g>
        <path d="M16.1 1.238c-.1 0-.3.1-.3.2l-2.1 2.1c-.2.2-.2.5 0 .7.2.2.5.2.7 0l2.1-2.1c.2-.2.2-.5 0-.7-.1-.2-.2-.2-.4-.2zm2.1.7c-.1 0-.3.1-.3.2l-2.1 2.1c-.2.2-.2.5 0 .7.2.2.5.2.7 0l2.1-2.1c.2-.2.2-.5 0-.7-.1-.2-.2-.2-.4-.2zm.7 2.1c-.1 0-.3.1-.3.2l-2.1 2.1c-.2.2-.2.5 0 .7.2.2.5.2.7 0l2.1-2.1c.2-.2.2-.5 0-.7-.1-.1-.2-.2-.4-.2zm-6.7.4c-.1 0-.3.1-.3.1l-3.5 3.5-3.9 3.9c-4.3 4.3-4.3 11.3 0 15.6 4.3 4.3 11.3 4.3 15.6 0l3.9-3.9 3.5-3.5c.2-.2.2-.5 0-.7l-3.5-3.5c-.1-.1-.2-.1-.4-.1-.1 0-.3.1-.3.1l-3.5 3.5-3.9 3.8c-2 2-5.3 2.1-7.2.1-2-2-2-5.2.1-7.2l3.8-3.8 3.5-3.5c.2-.2.2-.5 0-.7l-3.5-3.5c-.1-.2-.2-.2-.4-.2zm0 1.2l2.8 2.8-2.8 2.8-2.8-2.8 2.8-2.8zm-3.5 3.5l2.8 2.8-3.5 3.5c-2.4 2.4-2.5 6.3-.1 8.6 2.4 2.4 6.2 2.3 8.6-.1l3.5-3.5 2.8 2.8-3.6 3.6c-3.9 3.9-10.2 3.9-14.1 0-3.9-3.9-3.9-10.2 0-14.1l3.6-3.6zm18.7 3.4c-.1 0-.3.1-.3.2l-2.1 2.1c-.2.2-.2.5 0 .7s.5.2.7 0l2.1-2.1c.2-.2.2-.5 0-.7-.1-.1-.2-.2-.4-.2zm2.2.7c-.1 0-.3.1-.3.2l-2.1 2.1c-.2.2-.2.5 0 .7s.5.2.7 0l2.1-2.1c.2-.2.2-.5 0-.7-.2-.1-.3-.2-.4-.2zm.7 2.1c-.1 0-.3.1-.3.2l-2.1 2.1c-.2.2-.2.5 0 .7.2.2.5.2.7 0l2.1-2.1c.2-.2.2-.5 0-.7-.2-.1-.3-.2-.4-.2zm-6.7 1.6l2.8 2.8-2.8 2.8-2.8-2.8 2.8-2.8z"/>
    </g>
</svg>
